<svg xmlns="http://www.w3.org/2000/svg" viewBox="0 0 242.2 43.33"><defs><style>.cls-1{fill:#fff;}.cls-2{fill:#ff7556;}</style></defs><title>Fichier 2</title><g id="Calque_2" data-name="Calque 2"><g id="Calque_1-2" data-name="Calque 1"><g id="b5a93e15-ef7c-9d7a-680b-cdb17474f15f"><path class="cls-1" d="M67.15,29.77h0a10.9,10.9,0,0,1-8-3.23h0a11,11,0,0,1-3.23-8.07h0a10.92,10.92,0,0,1,3.23-8h0a10.9,10.9,0,0,1,8-3.23h0a12.16,12.16,0,0,1,8.27,3h0l-3,3.28h0a8.35,8.35,0,0,0-5.28-1.8h0a6.66,6.66,0,0,0-4.91,1.91h0a6.53,6.53,0,0,0-1.85,4.8h0a6.7,6.7,0,0,0,1.87,5h0a6.68,6.68,0,0,0,4.91,1.85h0a6.29,6.29,0,0,0,3.74-.95h0V20.44l-3,0V16.24h7.5V26.78h0a12.16,12.16,0,0,1-8.27,3Zm16.35-15V16.4h0a5.33,5.33,0,0,1,3.94-1.65h0a8.42,8.42,0,0,1,1.39.11h0L88.16,19h0a3.16,3.16,0,0,0-2.09-.7h0q-1.54.11-2.57,2.22h0v9.24h-4.2V15.19Zm14.89,15.2h0a7.44,7.44,0,0,1-5.48-2.2h0a7.45,7.45,0,0,1-2.18-5.46h0a7.47,7.47,0,0,1,2.18-5.48h0a7.44,7.44,0,0,1,5.48-2.2h0a7.44,7.44,0,0,1,5.48,2.2h0a7.44,7.44,0,0,1,2.2,5.48h0a7.36,7.36,0,0,1-2.2,5.46h0a7.44,7.44,0,0,1-5.48,2.2Zm0-3.63h0a3.61,3.61,0,0,0,2.77-1.17h0a4,4,0,0,0,1.08-2.86h0a4,4,0,0,0-1.08-2.86h0a3.63,3.63,0,0,0-2.79-1.17h0a3.61,3.61,0,0,0-2.77,1.17h0a4.06,4.06,0,0,0-1.06,2.86h0a4.06,4.06,0,0,0,1.06,2.86h0A3.63,3.63,0,0,0,98.39,26.3ZM118,24.45h0V14.72h4.2v15H118V28.41h0a5.22,5.22,0,0,1-3.61,1.36h0A5.43,5.43,0,0,1,110,28h0a5.88,5.88,0,0,1-1.52-4h0V14.72h4.22V23h0a3.38,3.38,0,0,0,.75,2.33h0a3,3,0,0,0,2.27.88h0A2.88,2.88,0,0,0,118,24.45Zm12,11.66-4.2,0V15.19l4.2-.46v1.21h0a5.72,5.72,0,0,1,3.32-1.21h0A7,7,0,0,1,138.78,17h0a7.55,7.55,0,0,1,2,5.26h0a7.55,7.55,0,0,1-2,5.26h0a7,7,0,0,1-5.48,2.27h0A5,5,0,0,1,130,28.54h0Zm0-15.22h0v2.44h0q.31,2.53,3.17,3h0a4,4,0,0,0,4.07-3.74h0q-.15-4.22-4.07-4.38h0Q130.29,18.64,130,20.88Zm20.64,9h0a7.36,7.36,0,0,1-5.46-2.2h0a7.41,7.41,0,0,1-2.2-5.46h0a7.44,7.44,0,0,1,2.2-5.48h0a7.36,7.36,0,0,1,5.46-2.2h0a7.44,7.44,0,0,1,5.48,2.2h0a7.44,7.44,0,0,1,2.2,5.48h0a7.36,7.36,0,0,1-2.2,5.46h0a7.44,7.44,0,0,1-5.48,2.2Zm0-3.63h0a3.56,3.56,0,0,0,2.77-1.17h0a4,4,0,0,0,1.08-2.86h0a4,4,0,0,0-1.08-2.86h0a3.59,3.59,0,0,0-2.79-1.17h0a3.61,3.61,0,0,0-2.77,1.17h0a4.06,4.06,0,0,0-1.06,2.86h0a4.06,4.06,0,0,0,1.06,2.86h0A3.63,3.63,0,0,0,150.61,26.3Zm14.7-6.14h0v9.61h-4.22V15.19l4.22-.46v1.34h0a5.06,5.06,0,0,1,3.61-1.32h0a5.51,5.51,0,0,1,4.36,1.72h0a6.57,6.57,0,0,1,5-1.72h0a5.54,5.54,0,0,1,4.38,1.72h0a6,6,0,0,1,1.5,4h0v9.31h-4.2V21.5h0a3.59,3.59,0,0,0-.68-2.33h0a2.83,2.83,0,0,0-2.2-.86h0A2.8,2.8,0,0,0,174.86,20h0a5,5,0,0,0-.09.95h0v8.87h-4.2V21.5h0a3.59,3.59,0,0,0-.68-2.33h0a2.83,2.83,0,0,0-2.2-.86h0A3.06,3.06,0,0,0,165.31,20.16Zm24.44-1.06-1.65-2.55h0a12.15,12.15,0,0,1,6.62-1.8h0a5.91,5.91,0,0,1,4.27,1.5h0a6,6,0,0,1,1.58,4.51h0v9h-4.2V28.58h0a6.32,6.32,0,0,1-3.32,1.19h0a6.86,6.86,0,0,1-4.51-1.28h0A4.38,4.38,0,0,1,187,25h0a5.58,5.58,0,0,1,1.43-3.76h0q1.41-1.65,4.58-1.65h0a7.71,7.71,0,0,1,3.32.9h0V20h0q0-1.65-2.42-1.8h0a8.17,8.17,0,0,0-4.2.9Zm6.62,6.16h0V23.57h0q-.59-1.17-2.86-1.17h0q-2.71.31-2.86,2.11h0q.15,1.78,2.86,1.94h0Q195.78,26.45,196.37,25.26Zm12.19-5h0v9.55h-4.22V15.19l4.22-.46v1.36h0a5.27,5.27,0,0,1,3.61-1.34h0a5.47,5.47,0,0,1,4.36,1.72h0a6,6,0,0,1,1.5,4h0v9.31h-4.2V21.5h0a3.38,3.38,0,0,0-.75-2.33h0a3.14,3.14,0,0,0-2.29-.86h0Q209.49,18.4,208.56,20.22Zm17.2,9.55h-4.2v-15h4.2Zm-4.36-18.63h0a2,2,0,0,0,.59,1.5h0a2.31,2.31,0,0,0,1.67.59h0a2.28,2.28,0,0,0,1.65-.59h0a2,2,0,0,0,.59-1.5h0a2.1,2.1,0,0,0-.59-1.52h0A2.29,2.29,0,0,0,223.63,9h0a2.2,2.2,0,0,0-1.63.62h0A2.1,2.1,0,0,0,221.41,11.14Zm10,8-1.65-2.55h0a12.15,12.15,0,0,1,6.62-1.8h0a6,6,0,0,1,4.29,1.5h0a6,6,0,0,1,1.56,4.51h0v9H238V28.58h0a6.22,6.22,0,0,1-3.3,1.19h0a6.81,6.81,0,0,1-4.51-1.28h0A4.35,4.35,0,0,1,228.67,25h0a5.58,5.58,0,0,1,1.43-3.76h0q1.41-1.65,4.6-1.65h0a7.68,7.68,0,0,1,3.3.9h0V20h0q0-1.65-2.4-1.8h0a8.29,8.29,0,0,0-4.22.9ZM238,25.26h0V23.57h0q-.59-1.17-2.86-1.17h0q-2.71.31-2.86,2.11h0q.15,1.78,2.86,1.94h0Q237.4,26.45,238,25.26Z"/></g><g id="_9269873b-566f-aa23-fe77-697bbc54db67" data-name="9269873b-566f-aa23-fe77-697bbc54db67"><path class="cls-2" d="M21.66,43.33A21.59,21.59,0,0,0,43.33,21.66,21.59,21.59,0,0,0,21.66,0,21.59,21.59,0,0,0,0,21.66,21.59,21.59,0,0,0,21.66,43.33Zm1.24-3.68a10,10,0,0,1-1.24.05c-.57,0-1.14-.05-1.71-.1a31.51,31.51,0,0,1-4.09-9.28H25a4.49,4.49,0,0,0,1.55,2A31.54,31.54,0,0,1,22.91,39.65Zm4.92-1a32.52,32.52,0,0,0,2.38-5.55,4.5,4.5,0,0,0,3.27-2.75h4A18.48,18.48,0,0,1,27.83,38.61ZM39.65,21.66a19.86,19.86,0,0,1-.67,5h-5.6a4.74,4.74,0,0,0-1.45-1.76q.16-1.71.16-3.42a36.24,36.24,0,0,0-.31-4.77h7.15A15.84,15.84,0,0,1,39.65,21.66ZM37.47,13H31.15a34.88,34.88,0,0,0-3-8.14A18.36,18.36,0,0,1,37.47,13Zm-9,8.45c0,.88-.05,1.76-.1,2.64a4.49,4.49,0,0,0-3.21,2.54h-10a36.12,36.12,0,0,1-.36-4.72,28.2,28.2,0,0,1,.16-3A4.68,4.68,0,0,0,18,16.69H28.14A36.24,36.24,0,0,1,28.45,21.46ZM20.32,3.73a12.17,12.17,0,0,1,1.35-.05c.52,0,1,0,1.55.05A31.51,31.51,0,0,1,27.31,13h-9a5,5,0,0,0-1.61-2.23A33.61,33.61,0,0,1,20.32,3.73Zm-4.92,1A38.37,38.37,0,0,0,13.11,10a4.59,4.59,0,0,0-3.42,3H5.91A18.22,18.22,0,0,1,15.39,4.77ZM3.68,21.66a17.5,17.5,0,0,1,.73-5h5.65a5.13,5.13,0,0,0,1.3,1.5c-.1,1.24-.21,2.49-.21,3.73a35.45,35.45,0,0,0,.31,4.72h-7A16.07,16.07,0,0,1,3.68,21.66Zm8.4,8.6a35.77,35.77,0,0,0,3,8.14,18.16,18.16,0,0,1-9.23-8.14Z"/></g></g></g></svg>