<svg xmlns="http://www.w3.org/2000/svg" viewBox="0 0 43.33 43.33"><defs><style>.cls-1{fill:#ff7556;}</style></defs><title>Fichier 1</title><g id="Calque_2" data-name="Calque 2"><g id="Calque_1-2" data-name="Calque 1"><g id="Calque_2-2" data-name="Calque 2"><g id="Calque_1-2-2" data-name="Calque 1-2"><g id="_9269873b-566f-aa23-fe77-697bbc54db67" data-name=" 9269873b-566f-aa23-fe77-697bbc54db67"><path class="cls-1" d="M21.66,43.33A21.59,21.59,0,0,0,43.33,21.82q0-.08,0-.16A21.59,21.59,0,0,0,21.81,0h-.15A21.59,21.59,0,0,0,0,21.52s0,.09,0,.14A21.59,21.59,0,0,0,21.51,43.33Zm1.24-3.68a10,10,0,0,1-1.24,0c-.57,0-1.14,0-1.71-.1a31.51,31.51,0,0,1-4.09-9.28H25a4.49,4.49,0,0,0,1.55,2,31.54,31.54,0,0,1-3.64,7.33Zm4.92-1A32.52,32.52,0,0,0,30.2,33.1a4.5,4.5,0,0,0,3.27-2.75h4a18.48,18.48,0,0,1-9.64,8.26Zm11.83-17a19.86,19.86,0,0,1-.67,5h-5.6a4.74,4.74,0,0,0-1.45-1.76q.16-1.71.16-3.42a36.24,36.24,0,0,0-.31-4.77h7.15A15.84,15.84,0,0,1,39.65,21.66ZM37.47,13H31.15a34.88,34.88,0,0,0-3-8.14A18.36,18.36,0,0,1,37.47,13Zm-9,8.45c0,.88,0,1.76-.1,2.64a4.49,4.49,0,0,0-3.21,2.54h-10a36.12,36.12,0,0,1-.36-4.72,28.2,28.2,0,0,1,.16-3,4.68,4.68,0,0,0,3-2.22H28.14a36.24,36.24,0,0,1,.31,4.77ZM20.32,3.73a12.17,12.17,0,0,1,1.35,0c.52,0,1,0,1.55,0A31.51,31.51,0,0,1,27.31,13h-9a5,5,0,0,0-1.61-2.23A33.61,33.61,0,0,1,20.32,3.73Zm-4.92,1A38.37,38.37,0,0,0,13.11,10a4.59,4.59,0,0,0-3.42,3H5.91a18.22,18.22,0,0,1,9.48-8.23ZM3.68,21.66a17.5,17.5,0,0,1,.73-5h5.65a5.13,5.13,0,0,0,1.3,1.5c-.1,1.24-.21,2.49-.21,3.73a35.45,35.45,0,0,0,.31,4.72h-7A16.07,16.07,0,0,1,3.68,21.66Zm8.4,8.6a35.77,35.77,0,0,0,3,8.14,18.16,18.16,0,0,1-9.23-8.14Z"/></g></g></g></g></g></svg>